<?xml version='1.0' encoding='UTF-8'?>
<svg xmlns="http://www.w3.org/2000/svg" xmlns:inkscape="http://www.inkscape.org/namespaces/inkscape" xmlns:sodipodi="http://sodipodi.sourceforge.net/DTD/sodipodi-0.dtd" xmlns:xlink="http://www.w3.org/1999/xlink" width="48" height="48" viewBox="0 0 48 48" version="1.0"><defs><linearGradient inkscape:collect="always" id="linearGradient4022-6-3-1-1">
      <stop style="stop-color:#555753;stop-opacity:1" offset="0" id="stop4024-1-0-0-7" />
      <stop style="stop-color:#babdb6;stop-opacity:1" offset="1" id="stop4026-2-4-8-1" />
    </linearGradient>
    <linearGradient inkscape:collect="always" id="linearGradient4022-6-3-1-1-5">
      <stop style="stop-color:#555753;stop-opacity:1" offset="0" id="stop4024-1-0-0-7-2" />
      <stop style="stop-color:#babdb6;stop-opacity:1" offset="1" id="stop4026-2-4-8-1-8" />
    </linearGradient>
    <linearGradient inkscape:collect="always" xlink:href="#linearGradient4632-1-3-9-3-2" id="linearGradient4593-5-8-1-5-2" gradientUnits="userSpaceOnUse" x1="118.47968" y1="55.060318" x2="118.47968" y2="91.941895" gradientTransform="translate(515,1)" />
    <linearGradient inkscape:collect="always" xlink:href="#linearGradient4632-1-3-9-3-2" id="linearGradient4593-5-8-1-5-2-3" gradientUnits="userSpaceOnUse" x1="34.980953" y1="53.837799" x2="34.980953" y2="88.414284" gradientTransform="translate(-5,0)" />
    <linearGradient id="linearGradient4632-1-3-9-3-2">
      <stop style="stop-color:#eeeeec;stop-opacity:1" offset="0" id="stop4634-1-8-3-9-0" />
      <stop id="stop4636-1-9-9-8-8" offset="0.0274937" style="stop-color:#ffffff;stop-opacity:1;" />
      <stop id="stop4638-8-3-9-6-6" offset="0.274937" style="stop-color:#f2f2f2;stop-opacity:1;" />
      <stop id="stop4640-8-5-7-8-9" offset="0.38707438" style="stop-color:#eeeeec;stop-opacity:1" />
      <stop id="stop4642-5-41-9-6-9" offset="0.66528589" style="stop-color:#d9dad8;stop-opacity:1" />
      <stop id="stop4644-5-2-7-9-2" offset="0.76745707" style="stop-color:#dfe0dd;stop-opacity:1" />
      <stop style="stop-color:#f0f0f0;stop-opacity:1" offset="1" id="stop4646-3-2-3-7-3" />
    </linearGradient>
    <linearGradient y2="62.966934" x2="100.66614" y1="84.908066" x1="113.33386" gradientTransform="translate(526,1)" gradientUnits="userSpaceOnUse" id="linearGradient5012-0" xlink:href="#linearGradient4022-6-3-1-1" inkscape:collect="always" />
    <linearGradient inkscape:collect="always" xlink:href="#linearGradient4022-6-3-1-1-5" id="linearGradient5245" x1="35.46925" y1="81.820068" x2="23.593254" y2="61.250252" gradientUnits="userSpaceOnUse" />
    <linearGradient inkscape:collect="always" id="linearGradient5474">
      <stop style="stop-color:#ffffff;stop-opacity:1;" offset="0" id="stop5476" />
      <stop style="stop-color:#ffffff;stop-opacity:0;" offset="1" id="stop5478" />
    </linearGradient>
    <linearGradient inkscape:collect="always" xlink:href="#linearGradient5474" id="linearGradient5480" x1="102.75" y1="71.966835" x2="102.75" y2="87.952217" gradientUnits="userSpaceOnUse" gradientTransform="translate(520,1)" />
    <linearGradient inkscape:collect="always" id="linearGradient5491">
      <stop style="stop-color:#ffffff;stop-opacity:1;" offset="0" id="stop5493" />
      <stop style="stop-color:#ffffff;stop-opacity:0;" offset="1" id="stop5495" />
    </linearGradient>
    <linearGradient inkscape:collect="always" xlink:href="#linearGradient5491" id="linearGradient5497" x1="108.5" y1="75" x2="108.5" y2="66.109138" gradientUnits="userSpaceOnUse" gradientTransform="translate(520,1)" />
    <linearGradient inkscape:collect="always" id="linearGradient6462-6-8-548-9-2-7">
      <stop style="stop-color:#000000;stop-opacity:1;" offset="0" id="stop6464-5-9-94-5-4-4" />
      <stop style="stop-color:#000000;stop-opacity:0;" offset="1" id="stop6466-3-6-1-7-2-8" />
    </linearGradient>
    <linearGradient inkscape:collect="always" id="linearGradient6462-6-8-548-9-5">
      <stop style="stop-color:#000000;stop-opacity:1;" offset="0" id="stop6464-5-9-94-5-8" />
      <stop style="stop-color:#000000;stop-opacity:0;" offset="1" id="stop6466-3-6-1-7-5" />
    </linearGradient>
    <radialGradient r="4.84375" fy="197.29688" fx="33.875" cy="197.29688" cx="33.875" gradientTransform="matrix(1,0,0,0.33870968,0,130.47051)" gradientUnits="userSpaceOnUse" id="radialGradient5147-5" xlink:href="#linearGradient6462-6-8-548-9-2-7" inkscape:collect="always" />
    <radialGradient r="4.84375" fy="197.29688" fx="33.875" cy="197.29688" cx="33.875" gradientTransform="matrix(1,0,0,0.33870968,0,130.47051)" gradientUnits="userSpaceOnUse" id="radialGradient5521" xlink:href="#linearGradient6462-6-8-548-9-5" inkscape:collect="always" />
    </defs><g transform="translate(-616,-50)"><path sodipodi:type="arc" style="opacity:0.1;color:#000000;fill:url(#radialGradient5521);fill-opacity:1;fill-rule:nonzero;stroke:none;stroke-width:3;marker:none;visibility:visible;display:inline;overflow:visible;enable-background:new" id="path6460-6-4-4-4" sodipodi:cx="33.875" sodipodi:cy="197.29688" sodipodi:rx="4.84375" sodipodi:ry="1.640625" d="m 38.71875,197.29687 a 4.84375,1.640625 0 1 1 -9.6875,0 4.84375,1.640625 0 1 1 9.6875,0 z" transform="matrix(4.541935,0,0,1.9809503,485.14195,-299.08531)" />
      </g><g transform="translate(-616,-50)"><path sodipodi:type="arc" style="opacity:0.2;color:#000000;fill:url(#radialGradient5147-5);fill-opacity:1;fill-rule:nonzero;stroke:none;stroke-width:3;marker:none;visibility:visible;display:inline;overflow:visible;enable-background:new" id="path6460-6-4-4-3-3" sodipodi:cx="33.875" sodipodi:cy="197.29688" sodipodi:rx="4.84375" sodipodi:ry="1.640625" d="m 38.71875,197.29687 a 4.84375,1.640625 0 1 1 -9.6875,0 4.84375,1.640625 0 1 1 9.6875,0 z" transform="matrix(3.3032251,0,0,1.6761866,527.10325,-238.95639)" />
      </g><g transform="translate(-616,-50)"><path sodipodi:type="arc" style="color:#000000;fill:none;stroke:url(#linearGradient5245);stroke-width:8.43750095;stroke-linecap:round;stroke-linejoin:miter;stroke-miterlimit:4;stroke-opacity:1;stroke-dasharray:none;stroke-dashoffset:0;marker:none;visibility:visible;display:inline;overflow:visible;enable-background:new" id="path4788-6" sodipodi:cx="35.625" sodipodi:cy="71.125" sodipodi:rx="13.125" sodipodi:ry="13.125" d="M 46.405989,78.610714 A 13.125,13.125 0 1 1 47.171703,64.884866" transform="matrix(1.0666665,0,0,1.0666665,601.5,-1.3666573)" sodipodi:start="0.60691982" sodipodi:end="5.7877226" sodipodi:open="true" />
      </g><g transform="translate(-616,-50)"><path style="color:#000000;fill:none;stroke:url(#linearGradient5012-0);stroke-width:7;stroke-linecap:round;stroke-linejoin:miter;stroke-miterlimit:4;stroke-opacity:1;stroke-dasharray:none;stroke-dashoffset:0;marker:none;visibility:visible;display:inline;overflow:visible;enable-background:new" d="m 654.5,59.5 0,11 -11,0" id="path4847" sodipodi:nodetypes="ccc" />
      </g><g transform="translate(-616,-50)"><path sodipodi:type="arc" style="color:#000000;fill:none;stroke:url(#linearGradient4593-5-8-1-5-2-3);stroke-width:6.56250095;stroke-linecap:round;stroke-linejoin:miter;stroke-miterlimit:4;stroke-opacity:1;stroke-dasharray:none;stroke-dashoffset:0;marker:none;visibility:visible;display:inline;overflow:visible;enable-background:new" id="path4788" sodipodi:cx="35.625" sodipodi:cy="71.125" sodipodi:rx="13.125" sodipodi:ry="13.125" d="M 46.386659,78.638476 A 13.125,13.125 0 1 1 46.658568,64.016835" transform="matrix(1.0666665,0,0,1.0666665,601.5,-1.3666573)" sodipodi:start="0.6094973" sodipodi:end="5.7108764" sodipodi:open="true" />
      </g><g transform="translate(-616,-50)"><path style="color:#000000;fill:none;stroke:url(#linearGradient4593-5-8-1-5-2);stroke-width:5;stroke-linecap:round;stroke-linejoin:miter;stroke-miterlimit:4;stroke-opacity:1;stroke-dasharray:none;stroke-dashoffset:0;marker:none;visibility:visible;display:inline;overflow:visible;enable-background:new" d="m 654.5,59.5 0,11 -11,0" id="path4847-1" sodipodi:nodetypes="ccc" />
      </g><g transform="translate(-616,-50)"><path style="font-size:medium;font-style:normal;font-variant:normal;font-weight:normal;font-stretch:normal;text-indent:0;text-align:start;text-decoration:none;line-height:normal;letter-spacing:normal;word-spacing:normal;text-transform:none;direction:ltr;block-progression:tb;writing-mode:lr-tb;text-anchor:start;opacity:0.5;color:#000000;fill:none;stroke:#ffffff;stroke-width:1;stroke-miterlimit:4;stroke-dasharray:none;marker:none;visibility:visible;display:inline;overflow:visible;enable-background:new;font-family:Bitstream Vera Sans;-inkscape-font-specification:Bitstream Vera Sans" d="M 654.28125,57.46875 A 2.0002,2.0002 0 0 0 652.5,59.5 l 0,4.0625 c -0.9534,-1.127853 -2.06667,-2.152011 -3.28125,-3 L 649.125,60.5 c -2.85203,-1.961088 -6.0733,-2.922047 -9.3125,-2.96875 -5.46224,-0.07875 -10.90353,2.456806 -14.25,7.25 -5.35435,7.669111 -3.45036,18.3019 4.21875,23.65625 7.66911,5.35435 18.3019,3.450361 23.65625,-4.21875 a 3.0003,3.0003 0 1 0 -4.90625,-3.40625 c -3.49809,5.010353 -10.3334,6.216832 -15.34375,2.71875 -5.01036,-3.498083 -6.21683,-10.333397 -2.71875,-15.34375 3.49809,-5.010353 10.3334,-6.216833 15.34375,-2.71875 1.16116,0.810688 2.10377,1.843969 2.875,3.03125 l -5.1875,0 a 2.0002,2.0002 0 1 0 0,4 l 11,0 2,0 0,-2 0,-11 a 2.0002,2.0002 0 0 0 -2.03125,-2.03125 2.0002,2.0002 0 0 0 -0.1875,0 z" id="path4788-2" />
      </g><g transform="translate(-616,-50)"><path style="font-size:medium;font-style:normal;font-variant:normal;font-weight:normal;font-stretch:normal;text-indent:0;text-align:start;text-decoration:none;line-height:normal;letter-spacing:normal;word-spacing:normal;text-transform:none;direction:ltr;block-progression:tb;writing-mode:lr-tb;text-anchor:start;color:#000000;fill:none;stroke:#ffffff;stroke-width:1;stroke-linecap:round;stroke-miterlimit:4;stroke-dasharray:none;marker:none;visibility:visible;display:inline;overflow:visible;enable-background:new;font-family:Bitstream Vera Sans;-inkscape-font-specification:Bitstream Vera Sans" d="m 656.50006,59.499998 c 0.0167,-1.068036 -0.96321,-2.047962 -2.03125,-2.03125 -0.0624,-0.0029 -0.12505,-0.0029 -0.1875,0 l -5e-5,0 c -0.98275,0.107995 -1.80251,1.04281 -1.78125,2.03125 l 0,4.0625 m -3.81245,4.9375 -5.1875,0 c -1.05663,-0.01494 -2.02848,0.943269 -2.02848,2 0,1.056731 0.97185,2.014943 2.02848,2" id="path4788-2-4" sodipodi:nodetypes="csccccccsc" />
      </g><g transform="translate(-616,-50)"><path style="font-size:medium;font-style:normal;font-variant:normal;font-weight:normal;font-stretch:normal;text-indent:0;text-align:start;text-decoration:none;line-height:normal;letter-spacing:normal;word-spacing:normal;text-transform:none;direction:ltr;block-progression:tb;writing-mode:lr-tb;text-anchor:start;color:#000000;fill:none;stroke:url(#linearGradient5480);stroke-width:1;stroke-miterlimit:4;stroke-dasharray:none;marker:none;visibility:visible;display:inline;overflow:visible;enable-background:new;font-family:Bitstream Vera Sans;-inkscape-font-specification:Bitstream Vera Sans" d="m 652.50001,63.562498 c -0.9534,-1.127853 -2.06667,-2.152011 -3.28125,-3 l -0.0937,-0.0625 c -2.85203,-1.961088 -6.0733,-2.922047 -9.3125,-2.96875 -5.46224,-0.07875 -10.90354,2.456806 -14.25001,7.25 -5.35435,7.669111 -3.45036,18.3019 4.21875,23.65625" id="path4788-2-3" sodipodi:nodetypes="cccsss" />
      </g><g transform="translate(-616,-50)"><path style="font-size:medium;font-style:normal;font-variant:normal;font-weight:normal;font-stretch:normal;text-indent:0;text-align:start;text-decoration:none;line-height:normal;letter-spacing:normal;word-spacing:normal;text-transform:none;direction:ltr;block-progression:tb;writing-mode:lr-tb;text-anchor:start;color:#000000;fill:none;stroke:url(#linearGradient5497);stroke-width:1;stroke-linecap:round;stroke-miterlimit:4;stroke-dasharray:none;marker:none;visibility:visible;display:inline;overflow:visible;enable-background:new;font-family:Bitstream Vera Sans;-inkscape-font-specification:Bitstream Vera Sans" d="m 654.06681,81.896005 c -0.10794,-0.823377 -0.52185,-1.606643 -1.20666,-2.082081 -1.36961,-0.950876 -3.51415,-0.456174 -4.32883,0.998576 -3.49809,5.010353 -10.3334,6.216832 -15.34375,2.71875 -5.01038,-3.498083 -6.21685,-10.333397 -2.71877,-15.34375 3.49811,-5.010353 10.33342,-6.216833 15.34377,-2.71875" id="path4788-2-3-4" sodipodi:nodetypes="cscsss" />
      </g></svg>