<svg xmlns="http://www.w3.org/2000/svg" viewBox="0 0 16 16" width="128" height="128">
  <!-- Toggle Restrict Undo: Chicago95's push-pin, point left: grey-tipped black needle, the head a true ellipse (rx 2.5, ry 3.5: a disc seen at an angle) black-ringed and teal with a cyan upper highlight and an inner shadow toward the barrel, the teal barrel with a cyan top stripe. 11x7 at (2,4). -->
  <path fill="#808080" d="M2,7 H3 V8 H2 Z"/>
  <path fill="#000000" d="M3,7 H6 V8 H3 Z"/>
  <path fill="#000000" d="M9,5 H12 A1,1 0 0 1 13,6 V9 A1,1 0 0 1 12,10 H9 Z"/>
  <path fill="#008080" d="M9,6 H12 V9 H9 Z"/>
  <path fill="#00FFFF" d="M10,6 H11 V7 H10 Z"/>
  <path fill="#000000" d="M7.5,4 A2.5,3.5 0 0 1 7.5,11 A2.5,3.5 0 0 1 7.5,4 Z"/>
  <path fill="#008080" d="M7.5,5 A1.5,2.5 0 0 1 7.5,10 A1.5,2.5 0 0 1 7.5,5 Z"/>
  <path fill="#00FFFF" d="M7.5,5 A1.5,2.5 0 0 0 6,7.5 L7.5,7.5 Z M7.5,5 A1.5,2.5 0 0 1 8.56,6.0 L7.5,7.5 Z"/>
  <path fill="#000000" d="M8.4,5.6 A1.5,2.5 0 0 1 8.4,9.4 L7.9,8.9 A0.9,1.9 0 0 0 7.9,6.1 Z"/>
</svg>
